<?xml version="1.0" encoding="utf-8"?>
<!-- Generator: Adobe Illustrator 27.5.0, SVG Export Plug-In . SVG Version: 6.00 Build 0)  -->
<svg version="1.1" xmlns="http://www.w3.org/2000/svg" xmlns:xlink="http://www.w3.org/1999/xlink" x="0px" y="0px"
	 viewBox="0 0 500 500" style="enable-background:new 0 0 500 500;" xml:space="preserve">
<g id="BACKGROUND">
	<rect style="fill:#F0EDE6;" width="500" height="500"/>
</g>
<g id="OBJECTS">
	<path style="fill:#A37C5E;" d="M322.229,432.939c-20.77,12.051-56.753,8.972-71.58,11.279c-14.827,2.307-30.52-5.161-18.672-19.617
		c11.849-14.456,37.198-25.283,55.187-30.488C305.154,388.909,359.131,411.528,322.229,432.939z"/>
	<path style="fill:#D9D0BC;" d="M315.587,91.293c-14.027-20.729-50.078-30.84-71.323-16.424c-21.245,14.416-27.315,62.976,0,73.599
		c27.315,10.622,49.319,7.484,59.183-11.053C313.311,118.877,327.727,109.235,315.587,91.293z"/>
	<path style="fill:#CAB286;" d="M216.082,361.913c12.129-2.784,33.475-43.559,40.699-63.154
		c7.224-19.595,6.034-51.259-15.647-68.155c-21.682-16.896-63.833-12.25-65.065,14.938c-1.232,27.188-7.793,66.209-2.647,86.452
		C178.567,352.238,205.995,364.229,216.082,361.913z"/>
	<g>
		<path style="fill:none;stroke:#000000;stroke-width:1.5;stroke-linecap:round;stroke-linejoin:round;stroke-miterlimit:10;" d="
			M347.19,416.983c0,0-10.569-5.369-19.461-8.388s-36.909-9.898-55.867-3.691c-18.958,6.207-51.001,12.583-58.719,13.086
			c-7.717,0.503-12.114-9.853-18.993-12.705c-6.879-2.852-13.387-1.891-18.912,4.172c-1.68,1.843-3.785,3.62-5.883,5.765
			c-11.324,11.576-18.126,14.991-31.565,20.411c-8.872,3.577-17.122,9.997-21.533,14.401c-5.555,5.546-10.169,11.34-4.046,14.863
			c6.124,3.523,15.801-6.615,32.299-12.139c19.591-6.56,37.998-6.82,55.71-5.202c11.842,1.082,51.342,7.344,100.498,10.867
			c49.156,3.523,71.134,9.73,86.065-8.053c14.931-17.783,3.355-40.935-16.609-51.337c-19.964-10.402-37.58-24.159-72.14-30.366
			s-58.887-19.964-67.107-31.876c-8.221-11.911-13.086-37.412-16.106-51.337c-3.02-13.925-9.07-51.625-12.583-55.028
			c-2.684-2.6,0.587-5.285,2.936,1.174c2.349,6.459,1.174,8.221-1.846,8.053c-3.02-0.168-12.499-4.11-11.492-21.81
			s8.472-36.993,22.649-37.412c14.176-0.42,20.3,4.11,29.695,22.9s4.278,31.248,0.923,33.281
			c-3.355,2.034-5.285-23.719-4.698-29.758c0.587-6.04,2.349,2.768,2.852,13.589c0.503,10.821,0.587,30.45,3.355,54.609
			c2.768,24.159,0.755,31.205,12.331,39.006c11.576,7.801,27.85,35.902,36.573,42.865c8.724,6.962,9.143,7.549,7.969,7.801
			c-1.174,0.252-8.221-3.104-3.272-8.388c4.949-5.285,8.388-9.479,9.395-11.324c1.007-1.845,6.04,2.181,5.872,7.382
			c-0.168,5.201-7.839,18.287-7.839,18.287"/>
		<path style="fill:none;stroke:#000000;stroke-width:1.5;stroke-linecap:round;stroke-linejoin:round;stroke-miterlimit:10;" d="
			M246.778,149.35c1.661,3.228,3.736,6.544,6.462,9.941c10.905,13.589,15.141,17.7,20.971,15.351
			c5.83-2.349,3.943-5.578,6.585-5.704c2.642-0.126,3.817-0.629,3.775-2.181c0,0,3.02,0.336,3.607-1.887
			c0.587-2.223,1.929-5.033,4.194-2.726c2.265,2.307,6.207,4.949,7.508,2.475c1.3-2.475,0.629-7.256,1.72-10.905
			c1.091-3.649,4.11-6.837,7.55-9.143c3.439-2.307,7.466-5.411,10.695-11.45c3.229-6.04,3.775-7.13,3.775-7.13"/>
		<path style="fill:none;stroke:#000000;stroke-width:1.5;stroke-linecap:round;stroke-linejoin:round;stroke-miterlimit:10;" d="
			M175.647,407.672c-1.007-2.349-5.355-5.772-3.859-21.81c1.762-18.874,11.408-42.613,20.468-77.593
			c9.059-34.98,0.252-43.536-8.305-73.482c-8.556-29.947,4.278-53.35,13.589-64.171c9.311-10.821,10.821-11.324,21.642-24.159
			c10.821-12.834,17.364-23.655,17.364-23.655c2.433-4.614,11.157,10.653,28.772,6.795c17.616-3.859,16.609-6.207,33.721-5.704
			c17.112,0.503,18.119,4.53,24.83,0.671c6.711-3.859,8.053-7.717,6.543-18.287s-6.795-32.673-32.966-38.209
			c-26.172-5.536-36.112-5.056-49.953,3.397c-15.018,9.173-22.523,26.54-11.802,49.566"/>
		<path style="fill:none;stroke:#000000;stroke-width:1.5;stroke-linecap:round;stroke-linejoin:round;stroke-miterlimit:10;" d="
			M296.191,67.804c15.348,2.802,23.024-14.458,18.368-22.637c-4.656-8.179-24.195-11.374-30.576-1.132
			C279.202,51.71,279.584,64.772,296.191,67.804z"/>
		<path style="fill:none;stroke:#000000;stroke-width:1.5;stroke-linecap:round;stroke-linejoin:round;stroke-miterlimit:10;" d="
			M255.637,162.254c0,0-11.625,11.297-10.786,15.324c0.839,4.026,26.172,35.567,32.547,44.794
			c6.375,9.227,6.375,14.596,5.536,20.971c-0.839,6.375-3.733,6.921-3.859,10.569c-0.126,3.649,4.717,6.04,4.246,8.682
			c-0.471,2.642-6.762,8.053-9.405,10.444c-2.642,2.391-3.712,4.75-2.768,6.732c0.944,1.982,4.121,1.195,4.121,1.195
			s-3.271,4.215-1.762,6.449c1.51,2.233,4.907,0.126,6.48-1.132c0,0-1.887,3.146,0.881,4.624c2.768,1.478,8.965-3.114,8.965-3.114
			s-0.315,4.833,4.121,3.407c4.435-1.426,7.455-9.29,7.455-12.184s-1.384-2.705-3.083-7.046c-1.699-4.341-0.629-7.612-3.02-10.192
			c-2.391-2.579-7.172-6.543-10.129-9.311c-2.957-2.768-5.139-1.66-5.139-1.66"/>
		<path style="fill:none;stroke:#000000;stroke-width:1.5;stroke-linecap:round;stroke-linejoin:round;stroke-miterlimit:10;" d="
			M297.487,288.521c0,0,8.348,11.612,11.703,22.769c3.355,11.156,1.846,21.642,0.503,27.933c-1.342,6.291-2.085,8.649-2.085,8.649
			s-2.277-15.276,5.273-16.618c7.55-1.342,37.664-6.627,47.562-5.369c9.898,1.258,20.887,5.201,24.914,18.203
			c4.026,13.002-0.419,19.797-6.879,27.178s-18.454,20.3-19.964,21.978c-1.51,1.678-39.055-15.686-37.521-18.706
			c1.534-3.02,13.808-18.802,27.37-24.913c13.589-6.124,19.964-5.536,19.964-5.536"/>
		<path style="fill:none;stroke:#000000;stroke-width:1.5;stroke-linecap:round;stroke-linejoin:round;stroke-miterlimit:10;" d="
			M264.727,359.368c0,0-32.961-14.106-59.888-2.53c-26.927,11.576-29.611,18.538-33.05,29.024"/>
		<path style="fill:none;stroke:#000000;stroke-width:1.5;stroke-linecap:round;stroke-linejoin:round;stroke-miterlimit:10;" d="
			M275.27,280.965c0,0,9.85-5.797,14.564-12.788"/>
		<path style="fill:none;stroke:#000000;stroke-width:1.5;stroke-linecap:round;stroke-linejoin:round;stroke-miterlimit:10;" d="
			M279.988,286.281c0,0,10.462-8.024,14.364-13.227"/>
		<path style="fill:none;stroke:#000000;stroke-width:1.5;stroke-linecap:round;stroke-linejoin:round;stroke-miterlimit:10;" d="
			M289.834,287.791c0,0,5.791-4.546,7.653-8.721"/>
	</g>
</g>
</svg>
